<svg width="175" height="66" viewBox="0 0 175 66" fill="none" xmlns="http://www.w3.org/2000/svg">
<path d="M103.789 21.3359C103.841 21.4661 104.036 21.7526 104.375 22.1953C104.714 22.612 105.091 23.0807 105.508 23.6016C105.951 24.0964 106.38 24.5781 106.797 25.0469C107.214 25.5156 107.5 25.8542 107.656 26.0625C108.151 26.7917 108.659 27.5078 109.18 28.2109C109.701 28.9141 110.195 29.6432 110.664 30.3984C110.794 30.5286 110.898 30.6979 110.977 30.9062C111.055 31.0885 111.094 31.2839 111.094 31.4922C111.094 31.7266 111.029 31.8568 110.898 31.8828C110.794 31.8828 110.677 31.9089 110.547 31.9609C110.286 32.1432 110.052 32.2474 109.844 32.2734C109.635 32.2995 109.466 32.3125 109.336 32.3125C109.049 32.3125 108.737 32.2995 108.398 32.2734C108.06 32.2734 107.773 32.2995 107.539 32.3516C107.461 32.3776 107.37 32.4167 107.266 32.4688C107.161 32.5469 107.083 32.5859 107.031 32.5859C106.823 32.5859 106.667 32.5469 106.562 32.4688C106.484 32.4167 106.367 32.3646 106.211 32.3125C106.003 32.0781 105.807 31.8307 105.625 31.5703C105.469 31.3099 105.299 31.0495 105.117 30.7891C104.961 30.6068 104.792 30.4505 104.609 30.3203C104.427 30.1641 104.258 29.9818 104.102 29.7734C103.685 29.1745 103.255 28.6016 102.812 28.0547C102.396 27.5078 101.966 26.9609 101.523 26.4141C101.315 26.1276 101.081 25.8542 100.82 25.5938C100.586 25.3333 100.365 25.0729 100.156 24.8125C99.9479 24.526 99.7526 24.2266 99.5703 23.9141C99.388 23.6016 99.1927 23.3021 98.9844 23.0156C98.8281 22.7552 98.6068 22.4427 98.3203 22.0781C98.0339 21.6875 97.7344 21.2969 97.4219 20.9062C97.1094 20.5156 96.7839 20.151 96.4453 19.8125C96.1328 19.4479 95.8594 19.1745 95.625 18.9922C95.625 18.8099 95.5729 18.6797 95.4688 18.6016C95.3646 18.5234 95.2474 18.4323 95.1172 18.3281C95.0651 18.1979 95 18.0807 94.9219 17.9766C94.8438 17.8464 94.8047 17.7031 94.8047 17.5469C94.8047 17.4427 94.8177 17.3516 94.8438 17.2734C94.8698 17.1953 94.8958 17.1172 94.9219 17.0391C94.974 16.9349 95 16.8438 95 16.7656C95.026 16.6615 95.0651 16.5573 95.1172 16.4531C95.2474 16.1146 95.4297 15.8151 95.6641 15.5547C95.9245 15.2943 96.1198 14.9948 96.25 14.6562C96.276 14.5521 96.2891 14.4609 96.2891 14.3828C96.2891 14.2786 96.3151 14.1745 96.3672 14.0703C96.4453 13.9141 96.5625 13.7578 96.7188 13.6016C96.875 13.4453 97.0182 13.276 97.1484 13.0938C97.2786 12.8594 97.4089 12.625 97.5391 12.3906C97.6693 12.1562 97.7995 11.9219 97.9297 11.6875C98.2943 11.0885 98.6979 10.5156 99.1406 9.96875C99.5833 9.39583 100 8.83594 100.391 8.28906C100.755 7.76823 101.094 7.26042 101.406 6.76562C101.719 6.24479 102.057 5.72396 102.422 5.20312C102.604 4.94271 102.812 4.65625 103.047 4.34375C103.281 4.00521 103.516 3.67969 103.75 3.36719C104.01 3.05469 104.271 2.76823 104.531 2.50781C104.792 2.22135 105.052 2.01302 105.312 1.88281C105.755 1.83073 106.042 1.90885 106.172 2.11719C106.302 2.29948 106.484 2.39062 106.719 2.39062C107.083 2.46875 107.331 2.58594 107.461 2.74219C107.591 2.89844 107.721 3.04167 107.852 3.17188C108.19 3.17188 108.477 3.23698 108.711 3.36719C108.945 3.4974 109.18 3.69271 109.414 3.95312C109.31 4.23958 109.167 4.5 108.984 4.73438C108.828 4.96875 108.685 5.21615 108.555 5.47656C108.346 5.55469 108.19 5.6849 108.086 5.86719C108.008 6.04948 107.878 6.20573 107.695 6.33594C107.409 6.77865 107.122 7.22135 106.836 7.66406C106.549 8.08073 106.263 8.48438 105.977 8.875C105.846 9.03125 105.69 9.16146 105.508 9.26562C105.352 9.34375 105.221 9.47396 105.117 9.65625C105.065 9.73438 105.026 9.82552 105 9.92969C104.974 10.0078 104.935 10.0859 104.883 10.1641C104.57 10.6589 104.219 11.1406 103.828 11.6094C103.438 12.0781 103.099 12.5729 102.812 13.0938C102.682 13.276 102.578 13.4714 102.5 13.6797C102.422 13.862 102.331 14.0443 102.227 14.2266C102.122 14.3828 101.966 14.6042 101.758 14.8906C101.576 15.1771 101.38 15.4766 101.172 15.7891C100.99 16.0755 100.82 16.362 100.664 16.6484C100.534 16.9089 100.469 17.1302 100.469 17.3125C100.495 17.4427 100.664 17.7031 100.977 18.0938C101.289 18.4844 101.628 18.901 101.992 19.3438C102.383 19.7865 102.747 20.2031 103.086 20.5938C103.451 20.9844 103.685 21.2318 103.789 21.3359ZM131.836 16.4922C131.784 16.5964 131.732 16.7005 131.68 16.8047C131.628 16.8828 131.589 16.974 131.562 17.0781C131.667 17.1823 131.758 17.2995 131.836 17.4297C131.94 17.5339 131.992 17.651 131.992 17.7812C131.992 17.8854 131.966 17.9896 131.914 18.0938C131.888 18.1719 131.888 18.25 131.914 18.3281C131.81 18.5104 131.693 18.6797 131.562 18.8359C131.458 18.9922 131.38 19.1615 131.328 19.3438C131.224 19.4479 131.133 19.5521 131.055 19.6562C131.003 19.7604 130.951 19.8646 130.898 19.9688C130.768 20.0208 130.677 20.112 130.625 20.2422C130.599 20.3464 130.534 20.4375 130.43 20.5156C130.404 20.6198 130.273 20.8672 130.039 21.2578C129.805 21.6484 129.544 22.0651 129.258 22.5078C128.971 22.9505 128.698 23.3802 128.438 23.7969C128.177 24.2135 127.995 24.487 127.891 24.6172C127.839 24.7474 127.773 24.8516 127.695 24.9297C127.643 25.0078 127.578 25.099 127.5 25.2031C127.448 25.2812 127.409 25.3724 127.383 25.4766C127.357 25.5547 127.318 25.6198 127.266 25.6719C127.214 25.776 127.148 25.8672 127.07 25.9453C127.018 26.0234 126.966 26.1276 126.914 26.2578C126.654 26.5964 126.393 27 126.133 27.4688C125.872 27.9375 125.625 28.3542 125.391 28.7188C125.26 28.9271 125.13 29.1354 125 29.3438C124.896 29.5521 124.779 29.7604 124.648 29.9688C124.518 30.1771 124.388 30.3724 124.258 30.5547C124.128 30.737 123.997 30.9323 123.867 31.1406C123.659 31.2969 123.477 31.4922 123.32 31.7266C123.164 31.9349 122.982 32.1172 122.773 32.2734C122.435 32.2734 122.227 32.1172 122.148 31.8047C121.81 31.7266 121.641 31.7266 121.641 31.8047C121.641 31.8828 121.641 31.9479 121.641 32C121.536 32.0521 121.458 32.1302 121.406 32.2344C121.38 32.3385 121.315 32.4167 121.211 32.4688C121.003 32.4167 120.82 32.3255 120.664 32.1953C120.534 32.0911 120.339 32.0521 120.078 32.0781C119.974 31.9219 119.857 31.7917 119.727 31.6875C119.596 31.5573 119.479 31.4271 119.375 31.2969C119.323 31.1406 119.245 31.0104 119.141 30.9062C119.062 30.8021 118.984 30.6979 118.906 30.5938C118.828 30.4635 118.75 30.3464 118.672 30.2422C118.594 30.138 118.516 30.0339 118.438 29.9297C118.255 29.6953 118.073 29.474 117.891 29.2656C117.734 29.0312 117.591 28.7969 117.461 28.5625C117.253 28.25 117.044 27.9375 116.836 27.625C116.654 27.2865 116.458 26.9609 116.25 26.6484C116.146 26.4922 116.042 26.3359 115.938 26.1797C115.833 26.0234 115.742 25.8672 115.664 25.7109C115.612 25.5807 115.534 25.4245 115.43 25.2422C115.352 25.0599 115.247 24.9427 115.117 24.8906C115.065 24.6823 114.974 24.526 114.844 24.4219C114.714 24.3177 114.583 24.1875 114.453 24.0312C114.271 23.8229 114.102 23.6016 113.945 23.3672C113.789 23.1068 113.633 22.8464 113.477 22.5859C112.956 21.8568 112.461 21.1406 111.992 20.4375C111.549 19.7344 111.107 19.0052 110.664 18.25C110.794 17.8333 110.859 17.5208 110.859 17.3125C110.859 17.1042 110.924 16.9349 111.055 16.8047C111.055 16.7005 111.081 16.5443 111.133 16.3359C111.471 15.763 111.797 15.2422 112.109 14.7734C112.396 14.3307 112.591 13.9661 112.695 13.6797C112.826 13.3932 112.956 13.0938 113.086 12.7812C113.216 12.7031 113.32 12.612 113.398 12.5078C113.477 12.3776 113.581 12.2604 113.711 12.1562C113.763 11.8698 113.88 11.6354 114.062 11.4531C114.245 11.2448 114.362 10.9974 114.414 10.7109C114.648 10.5286 114.779 10.3203 114.805 10.0859C115.143 9.85156 115.352 9.53906 115.43 9.14844C115.638 8.9401 115.807 8.70573 115.938 8.44531C116.094 8.1849 116.237 7.91146 116.367 7.625C116.68 7.36458 116.927 7.02604 117.109 6.60938C117.266 6.50521 117.383 6.36198 117.461 6.17969C117.539 5.9974 117.643 5.84115 117.773 5.71094C117.982 5.3724 118.138 5.09896 118.242 4.89062C118.372 4.65625 118.503 4.42188 118.633 4.1875C118.815 4.1875 118.932 4.1224 118.984 3.99219C119.036 3.86198 119.141 3.8099 119.297 3.83594C119.297 3.60156 119.362 3.39323 119.492 3.21094C119.544 3.1849 119.622 3.15885 119.727 3.13281C119.831 3.08073 119.883 3.02865 119.883 2.97656C119.831 2.66406 119.844 2.48177 119.922 2.42969C120 2.3776 120.065 2.32552 120.117 2.27344C120.404 2.32552 120.599 2.36458 120.703 2.39062C120.807 2.41667 120.977 2.50781 121.211 2.66406C121.471 2.66406 121.654 2.71615 121.758 2.82031C121.862 2.92448 121.979 3.0026 122.109 3.05469C122.214 3.15885 122.292 3.26302 122.344 3.36719C122.422 3.47135 122.526 3.54948 122.656 3.60156C122.865 3.88802 123.086 4.20052 123.32 4.53906C123.555 4.8776 123.776 5.1901 123.984 5.47656C124.271 5.86719 124.557 6.24479 124.844 6.60938C125.156 6.94792 125.443 7.32552 125.703 7.74219C125.781 7.8724 125.924 8.10677 126.133 8.44531C126.341 8.75781 126.576 9.09635 126.836 9.46094C127.096 9.82552 127.331 10.1641 127.539 10.4766C127.747 10.763 127.891 10.9323 127.969 10.9844C128.047 11.1146 128.216 11.362 128.477 11.7266C128.737 12.0911 129.01 12.4818 129.297 12.8984C129.609 13.2891 129.909 13.6667 130.195 14.0312C130.482 14.3958 130.677 14.6302 130.781 14.7344C131.068 15.125 131.276 15.4505 131.406 15.7109C131.562 15.9453 131.706 16.2057 131.836 16.4922ZM122.891 23.8359C123.177 23.4453 123.398 23.0938 123.555 22.7812C123.711 22.4688 123.867 22.1562 124.023 21.8438C124.284 21.5312 124.44 21.3099 124.492 21.1797C124.544 21.0495 124.609 20.9193 124.688 20.7891C124.896 20.4766 125.104 20.1641 125.312 19.8516C125.547 19.5391 125.729 19.2005 125.859 18.8359C126.016 18.7318 126.133 18.6016 126.211 18.4453C126.289 18.2891 126.406 18.1458 126.562 18.0156C126.406 17.4688 126.224 17.0521 126.016 16.7656C125.807 16.4531 125.599 16.1536 125.391 15.8672C125.312 15.737 125.234 15.6068 125.156 15.4766C125.078 15.3464 125 15.2161 124.922 15.0859C124.818 15.0078 124.727 14.9297 124.648 14.8516C124.596 14.7734 124.531 14.6953 124.453 14.6172C124.401 14.487 124.323 14.3177 124.219 14.1094C124.115 13.9792 124.01 13.862 123.906 13.7578C123.802 13.6536 123.711 13.5234 123.633 13.3672C123.529 13.263 123.398 13.1198 123.242 12.9375C123.086 12.7552 122.917 12.5599 122.734 12.3516C122.578 12.1172 122.435 11.9089 122.305 11.7266C122.174 11.5182 122.07 11.349 121.992 11.2188C121.94 11.0885 121.888 10.9844 121.836 10.9062C121.81 10.8021 121.771 10.6979 121.719 10.5938C121.589 10.4115 121.458 10.2552 121.328 10.125C121.198 9.96875 121.068 9.79948 120.938 9.61719C120.859 9.66927 120.781 9.70833 120.703 9.73438C120.651 9.73438 120.599 9.76042 120.547 9.8125C120.365 10.151 120.156 10.4635 119.922 10.75C119.714 11.0365 119.505 11.349 119.297 11.6875C119.115 12 118.932 12.3255 118.75 12.6641C118.568 12.9766 118.385 13.2891 118.203 13.6016C118.073 13.7839 117.943 13.9661 117.812 14.1484C117.708 14.3047 117.591 14.487 117.461 14.6953C117.331 14.8776 117.214 15.0729 117.109 15.2812C117.031 15.4635 116.927 15.6458 116.797 15.8281C116.589 16.0885 116.419 16.3229 116.289 16.5312C116.159 16.7396 116.029 16.987 115.898 17.2734C115.977 17.4297 116.094 17.651 116.25 17.9375C116.432 18.1979 116.615 18.4714 116.797 18.7578C116.979 19.0182 117.135 19.2656 117.266 19.5C117.422 19.7344 117.513 19.8906 117.539 19.9688C117.747 20.151 117.917 20.3594 118.047 20.5938C118.177 20.8021 118.346 21.0104 118.555 21.2188C118.659 21.4271 118.776 21.6094 118.906 21.7656C119.036 21.9219 119.167 22.0911 119.297 22.2734C119.427 22.4557 119.596 22.7292 119.805 23.0938C120.013 23.4323 120.221 23.7839 120.43 24.1484C120.638 24.513 120.846 24.8516 121.055 25.1641C121.263 25.4766 121.432 25.6719 121.562 25.75C121.823 25.4635 122.031 25.151 122.188 24.8125C122.37 24.4479 122.604 24.1224 122.891 23.8359ZM153.164 16.4922C153.112 16.5964 153.06 16.7005 153.008 16.8047C152.956 16.8828 152.917 16.974 152.891 17.0781C152.995 17.1823 153.086 17.2995 153.164 17.4297C153.268 17.5339 153.32 17.651 153.32 17.7812C153.32 17.8854 153.294 17.9896 153.242 18.0938C153.216 18.1719 153.216 18.25 153.242 18.3281C153.138 18.5104 153.021 18.6797 152.891 18.8359C152.786 18.9922 152.708 19.1615 152.656 19.3438C152.552 19.4479 152.461 19.5521 152.383 19.6562C152.331 19.7604 152.279 19.8646 152.227 19.9688C152.096 20.0208 152.005 20.112 151.953 20.2422C151.927 20.3464 151.862 20.4375 151.758 20.5156C151.732 20.6198 151.602 20.8672 151.367 21.2578C151.133 21.6484 150.872 22.0651 150.586 22.5078C150.299 22.9505 150.026 23.3802 149.766 23.7969C149.505 24.2135 149.323 24.487 149.219 24.6172C149.167 24.7474 149.102 24.8516 149.023 24.9297C148.971 25.0078 148.906 25.099 148.828 25.2031C148.776 25.2812 148.737 25.3724 148.711 25.4766C148.685 25.5547 148.646 25.6198 148.594 25.6719C148.542 25.776 148.477 25.8672 148.398 25.9453C148.346 26.0234 148.294 26.1276 148.242 26.2578C147.982 26.5964 147.721 27 147.461 27.4688C147.201 27.9375 146.953 28.3542 146.719 28.7188C146.589 28.9271 146.458 29.1354 146.328 29.3438C146.224 29.5521 146.107 29.7604 145.977 29.9688C145.846 30.1771 145.716 30.3724 145.586 30.5547C145.456 30.737 145.326 30.9323 145.195 31.1406C144.987 31.2969 144.805 31.4922 144.648 31.7266C144.492 31.9349 144.31 32.1172 144.102 32.2734C143.763 32.2734 143.555 32.1172 143.477 31.8047C143.138 31.7266 142.969 31.7266 142.969 31.8047C142.969 31.8828 142.969 31.9479 142.969 32C142.865 32.0521 142.786 32.1302 142.734 32.2344C142.708 32.3385 142.643 32.4167 142.539 32.4688C142.331 32.4167 142.148 32.3255 141.992 32.1953C141.862 32.0911 141.667 32.0521 141.406 32.0781C141.302 31.9219 141.185 31.7917 141.055 31.6875C140.924 31.5573 140.807 31.4271 140.703 31.2969C140.651 31.1406 140.573 31.0104 140.469 30.9062C140.391 30.8021 140.312 30.6979 140.234 30.5938C140.156 30.4635 140.078 30.3464 140 30.2422C139.922 30.138 139.844 30.0339 139.766 29.9297C139.583 29.6953 139.401 29.474 139.219 29.2656C139.062 29.0312 138.919 28.7969 138.789 28.5625C138.581 28.25 138.372 27.9375 138.164 27.625C137.982 27.2865 137.786 26.9609 137.578 26.6484C137.474 26.4922 137.37 26.3359 137.266 26.1797C137.161 26.0234 137.07 25.8672 136.992 25.7109C136.94 25.5807 136.862 25.4245 136.758 25.2422C136.68 25.0599 136.576 24.9427 136.445 24.8906C136.393 24.6823 136.302 24.526 136.172 24.4219C136.042 24.3177 135.911 24.1875 135.781 24.0312C135.599 23.8229 135.43 23.6016 135.273 23.3672C135.117 23.1068 134.961 22.8464 134.805 22.5859C134.284 21.8568 133.789 21.1406 133.32 20.4375C132.878 19.7344 132.435 19.0052 131.992 18.25C132.122 17.8333 132.188 17.5208 132.188 17.3125C132.188 17.1042 132.253 16.9349 132.383 16.8047C132.383 16.7005 132.409 16.5443 132.461 16.3359C132.799 15.763 133.125 15.2422 133.438 14.7734C133.724 14.3307 133.919 13.9661 134.023 13.6797C134.154 13.3932 134.284 13.0938 134.414 12.7812C134.544 12.7031 134.648 12.612 134.727 12.5078C134.805 12.3776 134.909 12.2604 135.039 12.1562C135.091 11.8698 135.208 11.6354 135.391 11.4531C135.573 11.2448 135.69 10.9974 135.742 10.7109C135.977 10.5286 136.107 10.3203 136.133 10.0859C136.471 9.85156 136.68 9.53906 136.758 9.14844C136.966 8.9401 137.135 8.70573 137.266 8.44531C137.422 8.1849 137.565 7.91146 137.695 7.625C138.008 7.36458 138.255 7.02604 138.438 6.60938C138.594 6.50521 138.711 6.36198 138.789 6.17969C138.867 5.9974 138.971 5.84115 139.102 5.71094C139.31 5.3724 139.466 5.09896 139.57 4.89062C139.701 4.65625 139.831 4.42188 139.961 4.1875C140.143 4.1875 140.26 4.1224 140.312 3.99219C140.365 3.86198 140.469 3.8099 140.625 3.83594C140.625 3.60156 140.69 3.39323 140.82 3.21094C140.872 3.1849 140.951 3.15885 141.055 3.13281C141.159 3.08073 141.211 3.02865 141.211 2.97656C141.159 2.66406 141.172 2.48177 141.25 2.42969C141.328 2.3776 141.393 2.32552 141.445 2.27344C141.732 2.32552 141.927 2.36458 142.031 2.39062C142.135 2.41667 142.305 2.50781 142.539 2.66406C142.799 2.66406 142.982 2.71615 143.086 2.82031C143.19 2.92448 143.307 3.0026 143.438 3.05469C143.542 3.15885 143.62 3.26302 143.672 3.36719C143.75 3.47135 143.854 3.54948 143.984 3.60156C144.193 3.88802 144.414 4.20052 144.648 4.53906C144.883 4.8776 145.104 5.1901 145.312 5.47656C145.599 5.86719 145.885 6.24479 146.172 6.60938C146.484 6.94792 146.771 7.32552 147.031 7.74219C147.109 7.8724 147.253 8.10677 147.461 8.44531C147.669 8.75781 147.904 9.09635 148.164 9.46094C148.424 9.82552 148.659 10.1641 148.867 10.4766C149.076 10.763 149.219 10.9323 149.297 10.9844C149.375 11.1146 149.544 11.362 149.805 11.7266C150.065 12.0911 150.339 12.4818 150.625 12.8984C150.938 13.2891 151.237 13.6667 151.523 14.0312C151.81 14.3958 152.005 14.6302 152.109 14.7344C152.396 15.125 152.604 15.4505 152.734 15.7109C152.891 15.9453 153.034 16.2057 153.164 16.4922ZM144.219 23.8359C144.505 23.4453 144.727 23.0938 144.883 22.7812C145.039 22.4688 145.195 22.1562 145.352 21.8438C145.612 21.5312 145.768 21.3099 145.82 21.1797C145.872 21.0495 145.938 20.9193 146.016 20.7891C146.224 20.4766 146.432 20.1641 146.641 19.8516C146.875 19.5391 147.057 19.2005 147.188 18.8359C147.344 18.7318 147.461 18.6016 147.539 18.4453C147.617 18.2891 147.734 18.1458 147.891 18.0156C147.734 17.4688 147.552 17.0521 147.344 16.7656C147.135 16.4531 146.927 16.1536 146.719 15.8672C146.641 15.737 146.562 15.6068 146.484 15.4766C146.406 15.3464 146.328 15.2161 146.25 15.0859C146.146 15.0078 146.055 14.9297 145.977 14.8516C145.924 14.7734 145.859 14.6953 145.781 14.6172C145.729 14.487 145.651 14.3177 145.547 14.1094C145.443 13.9792 145.339 13.862 145.234 13.7578C145.13 13.6536 145.039 13.5234 144.961 13.3672C144.857 13.263 144.727 13.1198 144.57 12.9375C144.414 12.7552 144.245 12.5599 144.062 12.3516C143.906 12.1172 143.763 11.9089 143.633 11.7266C143.503 11.5182 143.398 11.349 143.32 11.2188C143.268 11.0885 143.216 10.9844 143.164 10.9062C143.138 10.8021 143.099 10.6979 143.047 10.5938C142.917 10.4115 142.786 10.2552 142.656 10.125C142.526 9.96875 142.396 9.79948 142.266 9.61719C142.188 9.66927 142.109 9.70833 142.031 9.73438C141.979 9.73438 141.927 9.76042 141.875 9.8125C141.693 10.151 141.484 10.4635 141.25 10.75C141.042 11.0365 140.833 11.349 140.625 11.6875C140.443 12 140.26 12.3255 140.078 12.6641C139.896 12.9766 139.714 13.2891 139.531 13.6016C139.401 13.7839 139.271 13.9661 139.141 14.1484C139.036 14.3047 138.919 14.487 138.789 14.6953C138.659 14.8776 138.542 15.0729 138.438 15.2812C138.359 15.4635 138.255 15.6458 138.125 15.8281C137.917 16.0885 137.747 16.3229 137.617 16.5312C137.487 16.7396 137.357 16.987 137.227 17.2734C137.305 17.4297 137.422 17.651 137.578 17.9375C137.76 18.1979 137.943 18.4714 138.125 18.7578C138.307 19.0182 138.464 19.2656 138.594 19.5C138.75 19.7344 138.841 19.8906 138.867 19.9688C139.076 20.151 139.245 20.3594 139.375 20.5938C139.505 20.8021 139.674 21.0104 139.883 21.2188C139.987 21.4271 140.104 21.6094 140.234 21.7656C140.365 21.9219 140.495 22.0911 140.625 22.2734C140.755 22.4557 140.924 22.7292 141.133 23.0938C141.341 23.4323 141.549 23.7839 141.758 24.1484C141.966 24.513 142.174 24.8516 142.383 25.1641C142.591 25.4766 142.76 25.6719 142.891 25.75C143.151 25.4635 143.359 25.151 143.516 24.8125C143.698 24.4479 143.932 24.1224 144.219 23.8359ZM172.07 32.0781C171.94 32.3906 171.667 32.651 171.25 32.8594C171.068 32.7552 170.898 32.625 170.742 32.4688C170.612 32.3385 170.443 32.2344 170.234 32.1562C170.078 31.8438 169.961 31.6615 169.883 31.6094C169.805 31.5312 169.714 31.4792 169.609 31.4531C169.453 31.3229 169.323 31.1667 169.219 30.9844C169.115 30.8021 168.997 30.6458 168.867 30.5156C168.815 30.4896 168.711 30.4115 168.555 30.2812C168.424 30.125 168.281 29.9688 168.125 29.8125C167.969 29.6562 167.826 29.513 167.695 29.3828C167.565 29.2266 167.487 29.1484 167.461 29.1484C167.227 28.9922 167.018 28.8229 166.836 28.6406C166.784 28.5625 166.719 28.4844 166.641 28.4062C166.589 28.3021 166.536 28.224 166.484 28.1719C166.276 28.0938 166.107 27.9896 165.977 27.8594C165.846 27.7031 165.716 27.5339 165.586 27.3516C165.482 27.1693 165.352 27.013 165.195 26.8828C165.065 26.7266 164.909 26.6094 164.727 26.5312C164.544 26.2708 164.323 26.0625 164.062 25.9062C163.802 25.724 163.581 25.5156 163.398 25.2812C163.242 25.099 163.073 24.9297 162.891 24.7734C162.708 24.5911 162.513 24.4219 162.305 24.2656C162.201 24.1094 162.031 23.888 161.797 23.6016C161.562 23.2891 161.354 23.1198 161.172 23.0938C161.146 23.6927 161.12 24.2917 161.094 24.8906C161.094 25.4896 161.081 26.0885 161.055 26.6875C161.055 27 161.055 27.3255 161.055 27.6641C161.081 28.0026 161.081 28.3411 161.055 28.6797C161.029 28.8099 160.99 28.9531 160.938 29.1094C160.911 29.2396 160.898 29.3828 160.898 29.5391C160.898 29.8516 160.872 30.0599 160.82 30.1641C160.794 30.2422 160.768 30.3203 160.742 30.3984C160.664 30.6589 160.586 30.9844 160.508 31.375C160.456 31.7396 160.326 32.026 160.117 32.2344C159.831 32.2604 159.609 32.2344 159.453 32.1562C159.401 32.2083 159.349 32.2604 159.297 32.3125C159.245 32.3646 159.167 32.3906 159.062 32.3906C159.01 32.3385 158.919 32.2865 158.789 32.2344C158.685 32.2083 158.607 32.1953 158.555 32.1953C158.424 32.1953 158.281 32.2214 158.125 32.2734C157.995 32.3255 157.865 32.3516 157.734 32.3516C157.604 32.3516 157.487 32.3125 157.383 32.2344C157.305 32.1823 157.201 32.1562 157.07 32.1562C156.992 32.1562 156.901 32.1953 156.797 32.2734C156.693 32.3516 156.589 32.3906 156.484 32.3906C156.354 32.3906 156.237 32.3646 156.133 32.3125C156.055 32.2865 155.964 32.2604 155.859 32.2344C155.859 32.1562 155.859 32.0781 155.859 32C155.885 31.9219 155.885 31.8438 155.859 31.7656L155.703 30.7891C155.729 30.6068 155.755 30.4245 155.781 30.2422C155.833 30.0599 155.872 29.8906 155.898 29.7344C155.924 29.3177 155.938 28.9271 155.938 28.5625C155.964 28.1719 155.977 27.7812 155.977 27.3906C155.977 26.7135 155.964 26.0495 155.938 25.3984C155.938 24.7474 155.951 24.0833 155.977 23.4062C156.003 23.1719 156.029 22.9375 156.055 22.7031C156.107 22.4427 156.133 22.1953 156.133 21.9609C156.133 21.2839 156.172 20.6198 156.25 19.9688C156.328 19.3177 156.393 18.6536 156.445 17.9766C156.497 17.4557 156.523 16.9479 156.523 16.4531C156.523 15.9583 156.523 15.4635 156.523 14.9688C156.523 14.0052 156.51 13.0547 156.484 12.1172C156.458 11.1536 156.445 10.2031 156.445 9.26562C156.445 8.95312 156.458 8.53646 156.484 8.01562C156.51 7.46875 156.484 7.05208 156.406 6.76562C156.432 6.01042 156.432 5.26823 156.406 4.53906C156.51 4.48698 156.562 4.40885 156.562 4.30469C156.589 4.20052 156.602 4.09635 156.602 3.99219V3.44531C156.836 3.1849 157.031 3.05469 157.188 3.05469C157.318 3.05469 157.448 3.06771 157.578 3.09375C157.708 3.11979 157.839 3.17188 157.969 3.25C158.307 3.17188 158.529 3.15885 158.633 3.21094C158.737 3.26302 158.854 3.3151 158.984 3.36719C159.193 3.34115 159.336 3.25 159.414 3.09375C159.701 3.14583 159.844 3.21094 159.844 3.28906C159.844 3.36719 159.87 3.44531 159.922 3.52344C160.182 3.54948 160.352 3.53646 160.43 3.48438C160.534 3.40625 160.651 3.35417 160.781 3.32812C161.016 3.38021 161.172 3.44531 161.25 3.52344C161.25 3.67969 161.289 3.86198 161.367 4.07031C161.445 4.2526 161.484 4.5 161.484 4.8125C161.484 5.04688 161.471 5.28125 161.445 5.51562C161.419 5.72396 161.406 5.93229 161.406 6.14062C161.406 6.50521 161.419 6.85677 161.445 7.19531C161.471 7.53385 161.484 7.88542 161.484 8.25C161.484 8.35417 161.471 8.45833 161.445 8.5625C161.445 8.64062 161.445 8.73177 161.445 8.83594C161.445 9.82552 161.471 10.8281 161.523 11.8438C161.576 12.8594 161.602 13.875 161.602 14.8906C161.602 14.9427 161.589 15.0208 161.562 15.125C161.536 15.2031 161.549 15.2682 161.602 15.3203C162.044 14.8516 162.422 14.3568 162.734 13.8359C163.047 13.2891 163.385 12.7552 163.75 12.2344C164.062 11.8438 164.375 11.375 164.688 10.8281C165.026 10.2812 165.312 9.78646 165.547 9.34375C165.651 9.1875 165.742 9.03125 165.82 8.875C165.898 8.71875 165.99 8.5625 166.094 8.40625C166.146 8.27604 166.211 8.15885 166.289 8.05469C166.393 7.92448 166.471 7.78125 166.523 7.625C166.654 7.41667 166.771 7.22135 166.875 7.03906C166.979 6.83073 167.096 6.6224 167.227 6.41406C167.357 6.20573 167.487 6.02344 167.617 5.86719C167.773 5.6849 167.917 5.5026 168.047 5.32031C168.255 4.98177 168.477 4.64323 168.711 4.30469C168.945 3.9401 169.154 3.57552 169.336 3.21094C169.596 3.08073 169.831 2.9375 170.039 2.78125C170.247 2.59896 170.469 2.44271 170.703 2.3125C170.964 2.65104 171.146 2.88542 171.25 3.01562C171.38 3.14583 171.549 3.22396 171.758 3.25C171.81 3.32812 171.836 3.41927 171.836 3.52344C171.862 3.6276 171.914 3.70573 171.992 3.75781C172.305 3.78385 172.487 3.78385 172.539 3.75781C172.617 3.88802 172.721 3.99219 172.852 4.07031C173.008 4.1224 173.151 4.17448 173.281 4.22656C173.281 4.30469 173.281 4.39583 173.281 4.5C173.281 4.57812 173.294 4.64323 173.32 4.69531C173.633 4.82552 173.789 5.07292 173.789 5.4375C173.294 6.32292 172.747 7.16927 172.148 7.97656C171.576 8.75781 171.068 9.60417 170.625 10.5156C170.495 10.8021 170.339 11.0755 170.156 11.3359C170 11.5964 169.87 11.8698 169.766 12.1562C169.583 12.3385 169.44 12.5339 169.336 12.7422C169.232 12.9245 169.102 13.1068 168.945 13.2891C168.841 13.4193 168.737 13.5625 168.633 13.7188C168.529 13.849 168.424 13.9792 168.32 14.1094C168.112 14.3958 167.917 14.6953 167.734 15.0078C167.578 15.2943 167.383 15.5807 167.148 15.8672C166.992 16.1276 166.81 16.388 166.602 16.6484C166.393 16.9349 166.211 17.2604 166.055 17.625C165.924 17.9635 165.755 18.276 165.547 18.5625C165.339 18.875 165.221 19.1094 165.195 19.2656C165.195 19.3958 165.13 19.6302 165 19.9688C165.182 20.2552 165.391 20.5156 165.625 20.75C165.859 20.9844 166.107 21.2057 166.367 21.4141C166.576 21.7005 166.81 21.9609 167.07 22.1953C167.357 22.4036 167.643 22.638 167.93 22.8984C168.034 23.0026 168.125 23.1068 168.203 23.2109C168.281 23.2891 168.372 23.3672 168.477 23.4453C168.763 23.7578 169.102 24.0573 169.492 24.3438C169.909 24.6302 170.299 24.9036 170.664 25.1641C170.951 25.4245 171.302 25.75 171.719 26.1406C172.161 26.5052 172.617 26.9089 173.086 27.3516C173.555 27.7682 173.971 28.1719 174.336 28.5625C174.701 28.9271 174.883 29.1615 174.883 29.2656C174.753 29.6562 174.596 29.9036 174.414 30.0078C174.258 30.0859 174.141 30.2161 174.062 30.3984C173.906 30.4505 173.828 30.5026 173.828 30.5547C173.828 30.6068 173.789 30.6979 173.711 30.8281C173.529 30.9583 173.372 31.1146 173.242 31.2969C173.112 31.4531 172.982 31.6094 172.852 31.7656C172.747 31.8177 172.643 31.8698 172.539 31.9219C172.461 31.9479 172.396 32.013 172.344 32.1172L172.07 32.0781ZM100.547 36.6016C100.651 36.5755 100.742 36.5365 100.82 36.4844C100.898 36.4323 100.99 36.4062 101.094 36.4062C101.172 36.4323 101.224 36.4844 101.25 36.5625C101.302 36.6406 101.367 36.7057 101.445 36.7578C101.523 36.7057 101.589 36.6536 101.641 36.6016C101.719 36.5495 101.797 36.5104 101.875 36.4844C102.135 36.5625 102.279 36.6927 102.305 36.875C102.435 36.9271 102.552 36.9922 102.656 37.0703C102.76 37.1224 102.878 37.1615 103.008 37.1875C103.06 37.2917 103.125 37.3698 103.203 37.4219C103.281 37.474 103.372 37.5521 103.477 37.6562C103.737 37.7083 104.076 37.8516 104.492 38.0859C104.935 38.3203 105.286 38.5026 105.547 38.6328C105.807 38.763 106.068 38.8932 106.328 39.0234C106.589 39.1536 106.836 39.2969 107.07 39.4531C107.305 39.5833 107.539 39.7396 107.773 39.9219C108.008 40.0781 108.255 40.2083 108.516 40.3125C108.75 40.599 109.049 40.7812 109.414 40.8594C109.779 40.9375 110.104 41.0807 110.391 41.2891C110.625 41.4193 110.846 41.5625 111.055 41.7188C111.263 41.849 111.471 41.9792 111.68 42.1094C111.758 42.2396 111.849 42.3438 111.953 42.4219C112.083 42.5 112.201 42.6042 112.305 42.7344C112.826 43.0208 113.125 43.2422 113.203 43.3984C113.281 43.4505 113.398 43.5286 113.555 43.6328C113.711 43.737 113.867 43.8542 114.023 43.9844C114.18 44.0885 114.323 44.2057 114.453 44.3359C114.583 44.4401 114.661 44.5443 114.688 44.6484C114.583 44.8828 114.531 45.0781 114.531 45.2344C114.531 45.3646 114.479 45.4818 114.375 45.5859C114.531 45.7943 114.609 45.9896 114.609 46.1719C114.479 46.4844 114.258 46.7448 113.945 46.9531C113.867 47.1615 113.737 47.3307 113.555 47.4609C113.398 47.5651 113.294 47.7214 113.242 47.9297C113.034 48.0599 112.904 48.1641 112.852 48.2422C112.826 48.3203 112.786 48.3984 112.734 48.4766C112.24 48.9974 111.771 49.4531 111.328 49.8438C110.911 50.2083 110.521 50.612 110.156 51.0547C109.896 51.1849 109.674 51.3542 109.492 51.5625C109.31 51.7448 109.141 51.9531 108.984 52.1875C108.776 52.3958 108.568 52.6042 108.359 52.8125C108.177 52.9948 107.982 53.1771 107.773 53.3594C107.721 53.4635 107.63 53.5547 107.5 53.6328C107.396 53.6849 107.318 53.776 107.266 53.9062C106.979 54.0365 106.745 54.2188 106.562 54.4531C106.38 54.6875 106.159 54.8828 105.898 55.0391L105.625 55.4297C105.547 55.4818 105.43 55.5729 105.273 55.7031C105.143 55.8073 105 55.9375 104.844 56.0938C104.714 56.224 104.596 56.3542 104.492 56.4844C104.388 56.6146 104.323 56.7188 104.297 56.7969C104.219 56.8229 104.089 56.901 103.906 57.0312C103.75 57.1615 103.581 57.3047 103.398 57.4609C103.242 57.6172 103.086 57.7734 102.93 57.9297C102.799 58.0859 102.721 58.1901 102.695 58.2422L102.305 58.5156C102.331 59.2188 102.344 59.9349 102.344 60.6641C102.37 61.3672 102.383 62.0703 102.383 62.7734V64.1016L102.109 64.4531C101.979 64.4531 101.875 64.4271 101.797 64.375C101.719 64.3229 101.628 64.2969 101.523 64.2969C101.419 64.2969 101.315 64.349 101.211 64.4531C101.133 64.5573 101.055 64.6354 100.977 64.6875C100.794 64.7135 100.638 64.7656 100.508 64.8438C100.404 64.8958 100.286 64.9479 100.156 65C100 64.9219 99.8438 64.8828 99.6875 64.8828C99.349 64.9609 99.1797 64.974 99.1797 64.9219C99.2057 64.8698 99.1536 64.8438 99.0234 64.8438C98.8151 65.0521 98.6849 65.1562 98.6328 65.1562C98.5286 65.1562 98.4245 65.1693 98.3203 65.1953C98.2422 65.2214 98.151 65.2344 98.0469 65.2344C97.9427 65.026 97.8516 64.8177 97.7734 64.6094C97.7214 64.375 97.6042 64.1536 97.4219 63.9453C97.5 63.6849 97.487 63.5026 97.3828 63.3984C97.5391 63.112 97.6042 62.7865 97.5781 62.4219C97.5521 62.0573 97.5391 61.7188 97.5391 61.4062C97.5391 61.224 97.5391 61.0547 97.5391 60.8984C97.5651 60.7161 97.5781 60.5469 97.5781 60.3906C97.5781 60.0781 97.5521 59.7656 97.5 59.4531C97.4479 59.1146 97.4219 58.776 97.4219 58.4375C97.4219 57.6562 97.4479 56.875 97.5 56.0938C97.5521 55.2865 97.5781 54.4922 97.5781 53.7109C97.5781 53.2682 97.5521 52.8125 97.5 52.3438C97.474 51.875 97.4609 51.4193 97.4609 50.9766C97.4609 50.6901 97.474 50.4297 97.5 50.1953C97.526 49.9349 97.5521 49.6875 97.5781 49.4531C97.5781 48.2552 97.5911 47.1094 97.6172 46.0156C97.6693 44.8958 97.6953 43.7891 97.6953 42.6953C97.6953 42.3307 97.6823 41.9922 97.6562 41.6797C97.6562 41.3411 97.6562 40.9896 97.6562 40.625C97.6562 40.4427 97.6693 40.2604 97.6953 40.0781C97.7214 39.8958 97.7344 39.7135 97.7344 39.5312C97.8125 38.724 97.8516 37.9167 97.8516 37.1094L97.8125 36.4844C97.9167 36.3281 98.0729 36.25 98.2812 36.25C98.5677 36.25 98.7891 36.3411 98.9453 36.5234C99.1276 36.4974 99.2969 36.4714 99.4531 36.4453C99.6354 36.3932 99.8047 36.3672 99.9609 36.3672C100.195 36.3672 100.391 36.4453 100.547 36.6016ZM102.852 42.8125C102.852 42.9427 102.839 43.0469 102.812 43.125C102.786 43.1771 102.76 43.2292 102.734 43.2812C102.734 43.3594 102.734 43.4505 102.734 43.5547C102.76 43.6328 102.773 43.724 102.773 43.8281C102.773 44.4271 102.76 45.026 102.734 45.625C102.734 46.1979 102.734 46.7708 102.734 47.3438L102.656 49.4141C102.656 49.5443 102.669 49.6875 102.695 49.8438C102.721 50 102.734 50.1432 102.734 50.2734C102.734 50.4036 102.721 50.5339 102.695 50.6641C102.669 50.7943 102.656 50.9245 102.656 51.0547C102.656 51.3932 102.695 51.7318 102.773 52.0703C102.904 52.0182 102.995 51.9401 103.047 51.8359C103.099 51.7057 103.164 51.6016 103.242 51.5234C103.841 50.9766 104.401 50.4036 104.922 49.8047C105.443 49.2057 105.977 48.6068 106.523 48.0078C106.992 47.513 107.396 47.1094 107.734 46.7969C108.073 46.4844 108.333 46.1068 108.516 45.6641C108.073 45.3776 107.617 45.0911 107.148 44.8047C106.68 44.4922 106.185 44.2318 105.664 44.0234C105.638 43.9714 105.56 43.9062 105.43 43.8281C105.326 43.75 105.208 43.6849 105.078 43.6328C104.948 43.5547 104.818 43.4896 104.688 43.4375C104.557 43.3854 104.466 43.3594 104.414 43.3594C104.18 43.151 103.932 43.0208 103.672 42.9688C103.49 42.9688 103.333 42.9427 103.203 42.8906C103.073 42.8125 102.982 42.7474 102.93 42.6953L102.852 42.8125ZM118.603 64.375C118.525 64.4271 118.447 64.4792 118.369 64.5312C118.291 64.5833 118.212 64.6354 118.134 64.6875C117.848 64.8438 117.587 64.9349 117.353 64.9609C117.119 64.9609 116.858 65.0911 116.572 65.3516C116.468 65.2214 116.39 65.1562 116.337 65.1562C116.285 65.1562 116.194 65.1562 116.064 65.1562C115.726 65.1562 115.53 65.0651 115.478 64.8828C115.374 64.9089 115.205 64.974 114.97 65.0781C114.762 65.1823 114.606 65.2604 114.502 65.3125C114.736 64.974 114.892 64.7135 114.97 64.5312C115.048 64.349 115.087 64.1797 115.087 64.0234C115.114 63.8672 115.127 63.7109 115.127 63.5547C115.153 63.3724 115.218 63.125 115.322 62.8125C115.374 62.7083 115.413 62.6042 115.439 62.5C115.465 62.3958 115.504 62.2786 115.556 62.1484C115.686 61.7578 115.791 61.3151 115.869 60.8203C115.973 60.3255 116.129 59.8958 116.337 59.5312C116.337 59.0885 116.429 58.6719 116.611 58.2812C116.819 57.8906 116.989 57.487 117.119 57.0703C117.171 56.9141 117.236 56.7578 117.314 56.6016C117.418 56.4453 117.496 56.2891 117.548 56.1328C117.653 55.8724 117.731 55.625 117.783 55.3906C117.861 55.1302 117.939 54.8828 118.017 54.6484C118.226 53.8932 118.434 53.151 118.642 52.4219C118.851 51.6667 119.046 50.9115 119.228 50.1562C119.254 50.026 119.28 49.8828 119.306 49.7266C119.358 49.5703 119.41 49.4271 119.462 49.2969C119.593 48.9062 119.671 48.5156 119.697 48.125C119.749 47.7083 119.879 47.3177 120.087 46.9531C120.061 46.7708 120.061 46.6016 120.087 46.4453C120.14 46.2891 120.192 46.1198 120.244 45.9375C120.296 45.7552 120.348 45.5859 120.4 45.4297C120.452 45.2734 120.491 45.1562 120.517 45.0781C120.647 44.7396 120.739 44.4401 120.791 44.1797C120.869 43.8932 121.012 43.5938 121.22 43.2812C121.22 43.2812 121.259 43.151 121.337 42.8906C121.416 42.6042 121.507 42.2917 121.611 41.9531C121.715 41.6146 121.806 41.3021 121.884 41.0156C121.962 40.7031 122.002 40.5208 122.002 40.4688C122.054 40.2604 122.093 40.0651 122.119 39.8828C122.171 39.7005 122.223 39.5052 122.275 39.2969C122.327 39.1667 122.379 39.0625 122.431 38.9844C122.483 38.8802 122.535 38.763 122.587 38.6328C122.666 38.3464 122.744 37.9948 122.822 37.5781C122.9 37.1615 123.004 36.8359 123.134 36.6016C123.212 36.4193 123.356 36.276 123.564 36.1719C123.798 36.0417 123.994 35.9115 124.15 35.7812C124.619 35.8333 124.957 35.8073 125.166 35.7031C125.4 35.599 125.621 35.4688 125.83 35.3125C125.96 35.3385 126.077 35.3776 126.181 35.4297C126.311 35.4557 126.442 35.4688 126.572 35.4688C127.067 36.0156 127.405 36.5755 127.587 37.1484C127.796 37.7214 127.991 38.2943 128.173 38.8672C128.252 39.1536 128.33 39.4401 128.408 39.7266C128.486 39.987 128.577 40.2474 128.681 40.5078C128.707 40.5859 128.746 40.6771 128.798 40.7812C128.851 40.8594 128.903 40.9505 128.955 41.0547C129.085 41.263 129.189 41.4844 129.267 41.7188C129.371 41.9531 129.462 42.1875 129.541 42.4219C129.697 42.6042 129.814 42.8255 129.892 43.0859C129.97 43.3203 130.035 43.5677 130.087 43.8281C130.166 44.0625 130.244 44.2969 130.322 44.5312C130.4 44.7396 130.517 44.9219 130.673 45.0781C130.726 45.3646 130.817 45.651 130.947 45.9375C131.077 46.1979 131.168 46.4844 131.22 46.7969C131.377 47.0052 131.559 47.4089 131.767 48.0078C131.976 48.5807 132.184 49.2057 132.392 49.8828C132.601 50.5599 132.796 51.2109 132.978 51.8359C133.16 52.4609 133.291 52.9036 133.369 53.1641C133.421 53.3724 133.525 53.6458 133.681 53.9844C133.837 54.2969 133.981 54.5833 134.111 54.8438C134.215 55.1302 134.319 55.4297 134.423 55.7422C134.554 56.0547 134.658 56.3542 134.736 56.6406C134.788 56.9271 134.84 57.2005 134.892 57.4609C134.97 57.7214 135.048 57.9948 135.127 58.2812C135.179 58.4635 135.257 58.6328 135.361 58.7891C135.465 58.9193 135.543 59.0885 135.595 59.2969C135.699 59.5052 135.765 59.7005 135.791 59.8828C135.843 60.0651 135.934 60.2604 136.064 60.4688C136.038 60.7552 136.051 60.9375 136.103 61.0156C136.155 61.0938 136.207 61.1849 136.259 61.2891C136.364 61.8359 136.481 62.2786 136.611 62.6172C136.741 62.9297 136.806 63.2682 136.806 63.6328C136.806 63.9453 136.741 64.1406 136.611 64.2188C136.507 64.2969 136.364 64.4271 136.181 64.6094C135.973 64.7917 135.791 64.9349 135.634 65.0391C135.504 65.1432 135.296 65.1953 135.009 65.1953C134.697 65.1693 134.502 65.2083 134.423 65.3125C134.371 65.4427 134.332 65.5339 134.306 65.5859C133.994 65.5599 133.785 65.5469 133.681 65.5469C133.603 65.5729 133.512 65.5859 133.408 65.5859C133.33 65.5859 133.239 65.599 133.134 65.625C133.056 65.6771 132.965 65.7682 132.861 65.8984C132.679 65.6901 132.496 65.4948 132.314 65.3125C132.158 65.1562 132.015 64.974 131.884 64.7656C131.884 64.3229 131.819 63.8021 131.689 63.2031C131.585 62.6042 131.468 62.1354 131.337 61.7969C131.077 61.1198 130.83 60.4557 130.595 59.8047C130.387 59.1536 130.179 58.4896 129.97 57.8125C129.892 57.526 129.801 57.2656 129.697 57.0312C129.619 56.7969 129.528 56.5495 129.423 56.2891C129.476 56.4974 129.489 56.7188 129.462 56.9531C129.462 57.1615 129.397 57.3698 129.267 57.5781C129.215 57.6302 129.137 57.6953 129.033 57.7734C128.929 57.8516 128.877 57.9167 128.877 57.9688C128.564 58.2292 128.291 58.4766 128.056 58.7109C128.082 59.1797 128.017 59.5052 127.861 59.6875C127.705 59.8698 127.535 60.0391 127.353 60.1953C126.91 60.2214 126.637 60.1953 126.533 60.1172C126.429 60.0391 126.285 59.987 126.103 59.9609C125.999 59.9349 125.895 59.9349 125.791 59.9609C125.686 59.9609 125.582 59.9609 125.478 59.9609C125.27 59.9609 125.074 59.9089 124.892 59.8047C124.814 59.7526 124.749 59.7005 124.697 59.6484C124.671 59.5964 124.632 59.5443 124.58 59.4922C124.371 59.2839 124.124 59.1146 123.837 58.9844C123.577 58.8281 123.317 58.6979 123.056 58.5938C122.848 58.4115 122.627 58.2292 122.392 58.0469C122.184 57.8385 121.962 57.6693 121.728 57.5391C121.52 58.0339 121.351 58.4766 121.22 58.8672C121.116 59.2318 120.986 59.5964 120.83 59.9609C120.543 60.8464 120.309 61.6276 120.127 62.3047C119.944 62.9557 119.736 63.6198 119.502 64.2969C119.397 64.3229 119.293 64.362 119.189 64.4141C119.111 64.4661 119.007 64.4922 118.877 64.4922L118.603 64.375ZM122.431 56.0547C122.64 55.6901 122.822 55.4948 122.978 55.4688C123.16 55.4167 123.317 55.3125 123.447 55.1562C123.499 55.1042 123.551 55.0391 123.603 54.9609C123.681 54.8828 123.759 54.8047 123.837 54.7266C123.916 54.6745 124.007 54.6224 124.111 54.5703C124.215 54.5182 124.306 54.4531 124.384 54.375C124.593 54.1927 124.762 54.0365 124.892 53.9062C125.048 53.776 125.27 53.7109 125.556 53.7109C125.999 53.7109 126.364 53.8281 126.65 54.0625C126.936 54.2708 127.288 54.4141 127.705 54.4922C127.757 54.6484 127.926 54.7656 128.212 54.8438C128.499 54.8958 128.72 54.974 128.877 55.0781C128.616 54.4271 128.408 53.776 128.252 53.125C128.121 52.4479 127.952 51.7839 127.744 51.1328C127.587 50.5599 127.405 50 127.197 49.4531C126.989 48.8802 126.78 48.3333 126.572 47.8125C126.39 47.2917 126.233 46.7839 126.103 46.2891C125.973 45.7943 125.804 45.3125 125.595 44.8438C125.387 45.3125 125.179 45.8854 124.97 46.5625C124.762 47.2396 124.606 47.8385 124.502 48.3594C124.502 48.5938 124.489 48.776 124.462 48.9062C124.41 49.0885 124.358 49.2578 124.306 49.4141C124.254 49.5443 124.202 49.6875 124.15 49.8438C123.811 50.8594 123.499 51.888 123.212 52.9297C122.952 53.9714 122.64 55.013 122.275 56.0547H122.431ZM145.8 54.3359C145.852 54.4661 146.047 54.7526 146.386 55.1953C146.724 55.612 147.102 56.0807 147.519 56.6016C147.961 57.0964 148.391 57.5781 148.808 58.0469C149.224 58.5156 149.511 58.8542 149.667 59.0625C150.162 59.7917 150.67 60.5078 151.191 61.2109C151.711 61.9141 152.206 62.6432 152.675 63.3984C152.805 63.5286 152.909 63.6979 152.987 63.9062C153.066 64.0885 153.105 64.2839 153.105 64.4922C153.105 64.7266 153.04 64.8568 152.909 64.8828C152.805 64.8828 152.688 64.9089 152.558 64.9609C152.297 65.1432 152.063 65.2474 151.855 65.2734C151.646 65.2995 151.477 65.3125 151.347 65.3125C151.06 65.3125 150.748 65.2995 150.409 65.2734C150.071 65.2734 149.784 65.2995 149.55 65.3516C149.472 65.3776 149.381 65.4167 149.277 65.4688C149.172 65.5469 149.094 65.5859 149.042 65.5859C148.834 65.5859 148.678 65.5469 148.573 65.4688C148.495 65.4167 148.378 65.3646 148.222 65.3125C148.014 65.0781 147.818 64.8307 147.636 64.5703C147.48 64.3099 147.31 64.0495 147.128 63.7891C146.972 63.6068 146.803 63.4505 146.62 63.3203C146.438 63.1641 146.269 62.9818 146.112 62.7734C145.696 62.1745 145.266 61.6016 144.823 61.0547C144.407 60.5078 143.977 59.9609 143.534 59.4141C143.326 59.1276 143.092 58.8542 142.831 58.5938C142.597 58.3333 142.376 58.0729 142.167 57.8125C141.959 57.526 141.764 57.2266 141.581 56.9141C141.399 56.6016 141.204 56.3021 140.995 56.0156C140.839 55.7552 140.618 55.4427 140.331 55.0781C140.045 54.6875 139.745 54.2969 139.433 53.9062C139.12 53.5156 138.795 53.151 138.456 52.8125C138.144 52.4479 137.87 52.1745 137.636 51.9922C137.636 51.8099 137.584 51.6797 137.48 51.6016C137.376 51.5234 137.258 51.4323 137.128 51.3281C137.076 51.1979 137.011 51.0807 136.933 50.9766C136.855 50.8464 136.816 50.7031 136.816 50.5469C136.816 50.4427 136.829 50.3516 136.855 50.2734C136.881 50.1953 136.907 50.1172 136.933 50.0391C136.985 49.9349 137.011 49.8438 137.011 49.7656C137.037 49.6615 137.076 49.5573 137.128 49.4531C137.258 49.1146 137.441 48.8151 137.675 48.5547C137.935 48.2943 138.131 47.9948 138.261 47.6562C138.287 47.5521 138.3 47.4609 138.3 47.3828C138.3 47.2786 138.326 47.1745 138.378 47.0703C138.456 46.9141 138.573 46.7578 138.73 46.6016C138.886 46.4453 139.029 46.276 139.159 46.0938C139.29 45.8594 139.42 45.625 139.55 45.3906C139.68 45.1562 139.81 44.9219 139.941 44.6875C140.305 44.0885 140.709 43.5156 141.152 42.9688C141.594 42.3958 142.011 41.8359 142.402 41.2891C142.766 40.7682 143.105 40.2604 143.417 39.7656C143.73 39.2448 144.068 38.724 144.433 38.2031C144.615 37.9427 144.823 37.6562 145.058 37.3438C145.292 37.0052 145.527 36.6797 145.761 36.3672C146.021 36.0547 146.282 35.7682 146.542 35.5078C146.803 35.2214 147.063 35.013 147.323 34.8828C147.766 34.8307 148.053 34.9089 148.183 35.1172C148.313 35.2995 148.495 35.3906 148.73 35.3906C149.094 35.4688 149.342 35.5859 149.472 35.7422C149.602 35.8984 149.732 36.0417 149.862 36.1719C150.201 36.1719 150.487 36.237 150.722 36.3672C150.956 36.4974 151.191 36.6927 151.425 36.9531C151.321 37.2396 151.178 37.5 150.995 37.7344C150.839 37.9688 150.696 38.2161 150.566 38.4766C150.357 38.5547 150.201 38.6849 150.097 38.8672C150.019 39.0495 149.889 39.2057 149.706 39.3359C149.42 39.7786 149.133 40.2214 148.847 40.6641C148.56 41.0807 148.274 41.4844 147.987 41.875C147.857 42.0312 147.701 42.1615 147.519 42.2656C147.362 42.3438 147.232 42.474 147.128 42.6562C147.076 42.7344 147.037 42.8255 147.011 42.9297C146.985 43.0078 146.946 43.0859 146.894 43.1641C146.581 43.6589 146.23 44.1406 145.839 44.6094C145.448 45.0781 145.11 45.5729 144.823 46.0938C144.693 46.276 144.589 46.4714 144.511 46.6797C144.433 46.862 144.342 47.0443 144.237 47.2266C144.133 47.3828 143.977 47.6042 143.769 47.8906C143.586 48.1771 143.391 48.4766 143.183 48.7891C143.001 49.0755 142.831 49.362 142.675 49.6484C142.545 49.9089 142.48 50.1302 142.48 50.3125C142.506 50.4427 142.675 50.7031 142.987 51.0938C143.3 51.4844 143.639 51.901 144.003 52.3438C144.394 52.7865 144.758 53.2031 145.097 53.5938C145.461 53.9844 145.696 54.2318 145.8 54.3359ZM171.825 65.0781C171.695 65.3906 171.421 65.651 171.005 65.8594C170.822 65.7552 170.653 65.625 170.497 65.4688C170.367 65.3385 170.197 65.2344 169.989 65.1562C169.833 64.8438 169.716 64.6615 169.638 64.6094C169.559 64.5312 169.468 64.4792 169.364 64.4531C169.208 64.3229 169.078 64.1667 168.973 63.9844C168.869 63.8021 168.752 63.6458 168.622 63.5156C168.57 63.4896 168.466 63.4115 168.309 63.2812C168.179 63.125 168.036 62.9688 167.88 62.8125C167.723 62.6562 167.58 62.513 167.45 62.3828C167.32 62.2266 167.242 62.1484 167.216 62.1484C166.981 61.9922 166.773 61.8229 166.591 61.6406C166.539 61.5625 166.473 61.4844 166.395 61.4062C166.343 61.3021 166.291 61.224 166.239 61.1719C166.031 61.0938 165.861 60.9896 165.731 60.8594C165.601 60.7031 165.471 60.5339 165.341 60.3516C165.236 60.1693 165.106 60.013 164.95 59.8828C164.82 59.7266 164.664 59.6094 164.481 59.5312C164.299 59.2708 164.078 59.0625 163.817 58.9062C163.557 58.724 163.335 58.5156 163.153 58.2812C162.997 58.099 162.828 57.9297 162.645 57.7734C162.463 57.5911 162.268 57.4219 162.059 57.2656C161.955 57.1094 161.786 56.888 161.552 56.6016C161.317 56.2891 161.109 56.1198 160.927 56.0938C160.901 56.6927 160.874 57.2917 160.848 57.8906C160.848 58.4896 160.835 59.0885 160.809 59.6875C160.809 60 160.809 60.3255 160.809 60.6641C160.835 61.0026 160.835 61.3411 160.809 61.6797C160.783 61.8099 160.744 61.9531 160.692 62.1094C160.666 62.2396 160.653 62.3828 160.653 62.5391C160.653 62.8516 160.627 63.0599 160.575 63.1641C160.549 63.2422 160.523 63.3203 160.497 63.3984C160.419 63.6589 160.341 63.9844 160.263 64.375C160.21 64.7396 160.08 65.026 159.872 65.2344C159.585 65.2604 159.364 65.2344 159.208 65.1562C159.156 65.2083 159.104 65.2604 159.052 65.3125C158.999 65.3646 158.921 65.3906 158.817 65.3906C158.765 65.3385 158.674 65.2865 158.544 65.2344C158.44 65.2083 158.361 65.1953 158.309 65.1953C158.179 65.1953 158.036 65.2214 157.88 65.2734C157.749 65.3255 157.619 65.3516 157.489 65.3516C157.359 65.3516 157.242 65.3125 157.138 65.2344C157.059 65.1823 156.955 65.1562 156.825 65.1562C156.747 65.1562 156.656 65.1953 156.552 65.2734C156.447 65.3516 156.343 65.3906 156.239 65.3906C156.109 65.3906 155.992 65.3646 155.888 65.3125C155.809 65.2865 155.718 65.2604 155.614 65.2344C155.614 65.1562 155.614 65.0781 155.614 65C155.64 64.9219 155.64 64.8438 155.614 64.7656L155.458 63.7891C155.484 63.6068 155.51 63.4245 155.536 63.2422C155.588 63.0599 155.627 62.8906 155.653 62.7344C155.679 62.3177 155.692 61.9271 155.692 61.5625C155.718 61.1719 155.731 60.7812 155.731 60.3906C155.731 59.7135 155.718 59.0495 155.692 58.3984C155.692 57.7474 155.705 57.0833 155.731 56.4062C155.757 56.1719 155.783 55.9375 155.809 55.7031C155.861 55.4427 155.888 55.1953 155.888 54.9609C155.888 54.2839 155.927 53.6198 156.005 52.9688C156.083 52.3177 156.148 51.6536 156.2 50.9766C156.252 50.4557 156.278 49.9479 156.278 49.4531C156.278 48.9583 156.278 48.4635 156.278 47.9688C156.278 47.0052 156.265 46.0547 156.239 45.1172C156.213 44.1536 156.2 43.2031 156.2 42.2656C156.2 41.9531 156.213 41.5365 156.239 41.0156C156.265 40.4688 156.239 40.0521 156.161 39.7656C156.187 39.0104 156.187 38.2682 156.161 37.5391C156.265 37.487 156.317 37.4089 156.317 37.3047C156.343 37.2005 156.356 37.0964 156.356 36.9922V36.4453C156.591 36.1849 156.786 36.0547 156.942 36.0547C157.072 36.0547 157.203 36.0677 157.333 36.0938C157.463 36.1198 157.593 36.1719 157.723 36.25C158.062 36.1719 158.283 36.1589 158.388 36.2109C158.492 36.263 158.609 36.3151 158.739 36.3672C158.947 36.3411 159.091 36.25 159.169 36.0938C159.455 36.1458 159.598 36.2109 159.598 36.2891C159.598 36.3672 159.624 36.4453 159.677 36.5234C159.937 36.5495 160.106 36.5365 160.184 36.4844C160.289 36.4062 160.406 36.3542 160.536 36.3281C160.77 36.3802 160.927 36.4453 161.005 36.5234C161.005 36.6797 161.044 36.862 161.122 37.0703C161.2 37.2526 161.239 37.5 161.239 37.8125C161.239 38.0469 161.226 38.2812 161.2 38.5156C161.174 38.724 161.161 38.9323 161.161 39.1406C161.161 39.5052 161.174 39.8568 161.2 40.1953C161.226 40.5339 161.239 40.8854 161.239 41.25C161.239 41.3542 161.226 41.4583 161.2 41.5625C161.2 41.6406 161.2 41.7318 161.2 41.8359C161.2 42.8255 161.226 43.8281 161.278 44.8438C161.33 45.8594 161.356 46.875 161.356 47.8906C161.356 47.9427 161.343 48.0208 161.317 48.125C161.291 48.2031 161.304 48.2682 161.356 48.3203C161.799 47.8516 162.177 47.3568 162.489 46.8359C162.802 46.2891 163.14 45.7552 163.505 45.2344C163.817 44.8438 164.13 44.375 164.442 43.8281C164.781 43.2812 165.067 42.7865 165.302 42.3438C165.406 42.1875 165.497 42.0312 165.575 41.875C165.653 41.7188 165.744 41.5625 165.848 41.4062C165.901 41.276 165.966 41.1589 166.044 41.0547C166.148 40.9245 166.226 40.7812 166.278 40.625C166.408 40.4167 166.526 40.2214 166.63 40.0391C166.734 39.8307 166.851 39.6224 166.981 39.4141C167.111 39.2057 167.242 39.0234 167.372 38.8672C167.528 38.6849 167.671 38.5026 167.802 38.3203C168.01 37.9818 168.231 37.6432 168.466 37.3047C168.7 36.9401 168.908 36.5755 169.091 36.2109C169.351 36.0807 169.585 35.9375 169.794 35.7812C170.002 35.599 170.223 35.4427 170.458 35.3125C170.718 35.651 170.901 35.8854 171.005 36.0156C171.135 36.1458 171.304 36.224 171.513 36.25C171.565 36.3281 171.591 36.4193 171.591 36.5234C171.617 36.6276 171.669 36.7057 171.747 36.7578C172.059 36.7839 172.242 36.7839 172.294 36.7578C172.372 36.888 172.476 36.9922 172.606 37.0703C172.763 37.1224 172.906 37.1745 173.036 37.2266C173.036 37.3047 173.036 37.3958 173.036 37.5C173.036 37.5781 173.049 37.6432 173.075 37.6953C173.388 37.8255 173.544 38.0729 173.544 38.4375C173.049 39.3229 172.502 40.1693 171.903 40.9766C171.33 41.7578 170.822 42.6042 170.38 43.5156C170.249 43.8021 170.093 44.0755 169.911 44.3359C169.755 44.5964 169.624 44.8698 169.52 45.1562C169.338 45.3385 169.195 45.5339 169.091 45.7422C168.986 45.9245 168.856 46.1068 168.7 46.2891C168.596 46.4193 168.492 46.5625 168.388 46.7188C168.283 46.849 168.179 46.9792 168.075 47.1094C167.867 47.3958 167.671 47.6953 167.489 48.0078C167.333 48.2943 167.138 48.5807 166.903 48.8672C166.747 49.1276 166.565 49.388 166.356 49.6484C166.148 49.9349 165.966 50.2604 165.809 50.625C165.679 50.9635 165.51 51.276 165.302 51.5625C165.093 51.875 164.976 52.1094 164.95 52.2656C164.95 52.3958 164.885 52.6302 164.755 52.9688C164.937 53.2552 165.145 53.5156 165.38 53.75C165.614 53.9844 165.861 54.2057 166.122 54.4141C166.33 54.7005 166.565 54.9609 166.825 55.1953C167.111 55.4036 167.398 55.638 167.684 55.8984C167.789 56.0026 167.88 56.1068 167.958 56.2109C168.036 56.2891 168.127 56.3672 168.231 56.4453C168.518 56.7578 168.856 57.0573 169.247 57.3438C169.664 57.6302 170.054 57.9036 170.419 58.1641C170.705 58.4245 171.057 58.75 171.473 59.1406C171.916 59.5052 172.372 59.9089 172.841 60.3516C173.309 60.7682 173.726 61.1719 174.091 61.5625C174.455 61.9271 174.638 62.1615 174.638 62.2656C174.507 62.6562 174.351 62.9036 174.169 63.0078C174.013 63.0859 173.895 63.2161 173.817 63.3984C173.661 63.4505 173.583 63.5026 173.583 63.5547C173.583 63.6068 173.544 63.6979 173.466 63.8281C173.283 63.9583 173.127 64.1146 172.997 64.2969C172.867 64.4531 172.736 64.6094 172.606 64.7656C172.502 64.8177 172.398 64.8698 172.294 64.9219C172.216 64.9479 172.151 65.013 172.098 65.1172L171.825 65.0781Z" fill="black"/>
<path d="M1.43501 33.6037C1.00592 33.7961 0.700348 34.1567 0.493835 34.6259C0.366287 35.0748 0.336212 35.5155 0.432991 35.9734C0.759071 36.628 1.17206 37.1606 1.64592 37.6813C1.71028 37.7533 1.77465 37.8253 1.84097 37.8995C1.97963 38.0545 2.11861 38.2091 2.25786 38.3634C2.47929 38.6089 2.69973 38.8555 2.91994 39.1024C3.54584 39.8038 4.17339 40.5032 4.80167 41.2018C5.18719 41.6307 5.57157 42.0608 5.9553 42.4917C6.10054 42.6543 6.24622 42.8164 6.39238 42.9779C7.17128 43.8389 7.87481 44.6808 8.44682 45.7335C9.18044 47.0735 10.1382 48.2663 11.074 49.4286C11.2108 49.599 11.3461 49.7708 11.4804 49.9437C11.8493 50.4173 12.223 50.8526 12.6496 51.2594C12.8169 51.4235 12.9697 51.5954 13.1232 51.7757C13.4578 52.1602 13.8228 52.4946 14.1943 52.8322C14.4561 53.0719 14.7118 53.3184 14.9678 53.5659C20.1899 58.4892 26.7709 61.8004 33.314 63.7361C33.5054 63.7935 33.6959 63.8539 33.8865 63.9149C36.9085 64.8675 40.0621 65.4269 43.1844 65.7175C43.4944 65.7469 43.804 65.7799 44.1137 65.8137C47.5916 66.1708 51.0778 65.9796 54.5416 65.5432C54.6061 65.5353 54.6707 65.5273 54.7372 65.5191C60.5629 64.796 66.5568 62.5781 71.3634 58.7476C71.4296 58.6953 71.4958 58.643 71.564 58.5891C71.6877 58.4903 71.8102 58.3896 71.9312 58.2865C72.5719 57.7631 73.2946 57.4381 74.0174 57.0885C74.4328 56.8874 74.8471 56.6831 75.2615 56.4793C75.3474 56.4372 75.4333 56.395 75.5219 56.3516C76.3918 55.924 77.2575 55.4859 78.1218 55.044C78.2833 54.9614 78.4448 54.879 78.6065 54.7968C79.395 54.3954 80.181 53.9884 80.9579 53.5587C81.048 53.5098 81.048 53.5098 81.1399 53.46C81.5248 53.2437 81.814 53.0363 81.9994 52.5887C82.1495 51.9144 82.1667 51.2622 81.8521 50.6488C81.6099 50.2757 81.3574 50.0787 80.9754 49.9147C80.1939 49.7885 79.7032 50.0096 78.9998 50.3848C78.8394 50.4679 78.679 50.551 78.5185 50.6339C78.34 50.7265 78.1619 50.8196 77.9837 50.9129C77.3057 51.2669 76.6237 51.6109 75.9425 51.9568C75.6344 52.1135 75.3265 52.2707 75.0186 52.428C74.8005 52.5391 74.582 52.6494 74.3636 52.7596C74.0858 52.9001 73.8103 53.0449 73.5358 53.1934C73.4709 53.2277 73.4059 53.262 73.3389 53.2973C73.2184 53.3609 73.0985 53.426 72.9794 53.4929C72.5328 53.7251 72.2216 53.699 71.758 53.5917C71.5984 53.5612 71.5984 53.5612 71.4356 53.5301C71.3257 53.507 71.2158 53.4839 71.1026 53.4601C71.0403 53.447 70.978 53.434 70.9138 53.4205C70.7776 53.392 70.6415 53.3634 70.5054 53.3347C70.2819 53.2875 70.0584 53.2406 69.8348 53.1938C69.4134 53.1054 68.9919 53.0168 68.5705 52.9281C67.6822 52.7412 66.7938 52.5546 65.9053 52.3682C65.8011 52.3463 65.6968 52.3244 65.5894 52.3019C64.0939 51.9881 62.5975 51.6799 61.1002 51.3765C59.5262 51.0574 57.9529 50.7336 56.3805 50.4041C56.2276 50.3721 56.2276 50.3721 56.0715 50.3394C54.9354 50.1012 53.7996 49.8608 52.6643 49.6173C52.5626 49.5955 52.461 49.5737 52.3563 49.5513C51.7454 49.4203 51.7454 49.4203 51.1346 49.2892C49.6721 48.9757 48.2079 48.675 46.7418 48.3839C45.3249 48.1023 43.912 47.8005 42.4996 47.4915C41.3127 47.232 40.1249 46.9823 38.9337 46.7489C37.789 46.5244 36.6482 46.2793 35.5074 46.0308C34.227 45.7524 32.9446 45.4889 31.6604 45.2333C30.4003 44.9824 29.1425 44.7229 27.8868 44.4442C26.9804 44.2433 26.0728 44.0507 25.1645 43.8617C25.0919 43.8466 25.0193 43.8315 24.9446 43.8159C24.1344 43.6475 23.3238 43.4811 22.5128 43.3175C22.4406 43.303 22.3684 43.2884 22.294 43.2734C22.1477 43.2439 22.0014 43.2144 21.8551 43.1849C21.746 43.1629 21.746 43.1629 21.6346 43.1405C21.5615 43.1257 21.4884 43.111 21.4131 43.0958C20.1797 42.8469 18.9489 42.5836 17.7186 42.3159C16.2133 41.9888 14.7053 41.68 13.1949 41.3845C13.0347 41.3522 12.8746 41.3182 12.7149 41.2827C12.2216 41.1752 11.7413 41.109 11.2397 41.0729C8.93658 40.8421 7.77852 39.4577 6.26743 37.5869C5.90411 37.1402 5.53214 36.7027 5.16133 36.264C4.87339 35.923 4.58687 35.581 4.30434 35.2343C2.75965 33.3485 2.75964 33.3485 1.43501 33.6037Z" fill="black"/>
<path d="M64.6529 23.6055C62.973 23.871 62.973 23.871 62.3756 24.4297C62.2507 24.5398 62.1255 24.6492 61.9998 24.7581C61.9451 24.8085 61.8904 24.8588 61.834 24.9107C61.3824 25.2418 60.9153 25.2938 60.3886 25.2926C60.3218 25.2927 60.255 25.2927 60.1862 25.2928C59.5525 25.2788 58.9678 25.1292 58.3586 24.9421C57.9986 24.8335 57.6449 24.7828 57.2744 24.7388C57.2066 24.7295 57.1387 24.7202 57.0688 24.7106C53.8236 24.511 48.8782 29.2138 46.5484 31.526C46.4178 31.6659 46.2886 31.8074 46.1612 31.951C46.0659 32.0552 46.0659 32.0552 45.9687 32.1615C45.6712 32.5101 45.4089 32.8442 45.3912 33.3536C45.5739 34.4421 46.2517 35.378 46.89 36.1752C46.9314 36.2271 46.9729 36.279 47.0156 36.3325C47.2784 36.66 47.5442 36.9841 47.812 37.3064C47.9377 37.4595 48.0621 37.6139 48.1857 37.7692C49.0739 38.8767 50.0122 39.9285 50.9478 40.9844C51.192 41.2601 51.4359 41.5362 51.6796 41.8125C51.87 42.0282 52.0606 42.2437 52.2512 42.459C52.3412 42.5607 52.4311 42.6625 52.521 42.7644C52.9792 43.2836 53.4399 43.7924 53.9336 44.2686C54.0822 44.4138 54.2243 44.5642 54.3652 44.7188C54.8892 45.292 55.4301 45.8117 56.0276 46.2851C56.0864 46.3327 56.1452 46.3802 56.2057 46.4291C56.6865 46.799 57.1477 47.0075 57.7413 46.9806C60.1481 46.1521 62.1768 41.009 63.3776 38.751C63.4142 38.6823 63.4508 38.6136 63.4885 38.5427C63.964 37.6437 64.3669 36.7186 64.744 35.7631C64.7838 35.6721 64.8236 35.5812 64.8646 35.4874C65.3525 34.3043 65.0991 33.0828 64.8326 31.8713C64.6957 31.2322 64.6387 30.5934 64.6301 29.9354C64.6278 29.8269 64.6254 29.7184 64.623 29.6066C64.6788 28.9826 64.9224 28.53 65.2603 28.053C65.8661 27.1951 66.1104 26.3642 66.1104 25.254C65.9534 25.0986 65.9534 25.0986 65.7403 24.932C65.2893 24.5551 64.9744 24.1212 64.6529 23.6055Z" fill="black"/>
<path d="M84.6288 0.167772C84.1484 0.454091 83.7923 0.871377 83.4126 1.3038C83.3326 1.39318 83.2527 1.48257 83.1704 1.57466C82.95 1.82162 82.7304 2.06946 82.5111 2.31774C82.274 2.58579 82.0359 2.85265 81.7979 3.11969C81.3324 3.64239 80.8679 4.16624 80.4038 4.69056C80.0267 5.11663 79.6493 5.54239 79.2717 5.96793C78.201 7.17476 77.1311 8.3825 76.0622 9.59135C75.9759 9.689 75.9758 9.689 75.8878 9.78863C75.8013 9.8864 75.8013 9.8864 75.7131 9.98615C74.7778 11.0437 73.8405 12.0991 72.9024 13.1534C71.9389 14.2363 70.9769 15.3209 70.0166 16.4074C69.4774 17.0172 68.9376 17.6262 68.3962 18.2335C67.9355 18.7501 67.4763 19.2683 67.0189 19.7887C66.7854 20.0541 66.5513 20.3188 66.3154 20.5815C66.0599 20.8661 65.8076 21.1542 65.5556 21.4428C65.4803 21.5255 65.405 21.6082 65.3275 21.6934C64.8491 22.2495 64.8491 22.2495 64.8078 22.6048C64.8959 23.528 65.5142 24.0934 66.0966 24.6735C66.4733 25.0035 66.7208 25.096 67.2032 25.051C67.3965 24.9096 67.3965 24.9096 67.5758 24.7065C67.645 24.6297 67.7142 24.5528 67.7855 24.4737C67.86 24.3878 67.9345 24.302 68.0112 24.2135C68.0915 24.1235 68.1719 24.0334 68.2546 23.9405C68.4773 23.6901 68.6988 23.4383 68.9197 23.1858C69.1583 22.914 69.3985 22.6439 69.6384 22.3736C70.1082 21.8437 70.5766 21.3122 71.0445 20.7801C71.5893 20.1607 72.1355 19.543 72.6817 18.9253C73.6563 17.8232 74.6295 16.7196 75.602 15.6151C76.5459 14.5431 77.4908 13.4722 78.4367 12.4025C78.5241 12.3036 78.5241 12.3036 78.6133 12.2028C78.6714 12.1371 78.7296 12.0713 78.7895 12.0036C79.8659 10.7863 80.9414 9.56797 82.0165 8.34919C82.397 7.91798 82.7776 7.48707 83.1584 7.05625C83.6224 6.53126 84.0858 6.00569 84.5486 5.47938C84.7848 5.2108 85.0212 4.94247 85.2582 4.67479C85.515 4.38479 85.7707 4.09361 86.0262 3.8023C86.1015 3.71761 86.1768 3.63292 86.2544 3.54566C86.3227 3.46747 86.3909 3.38928 86.4612 3.30873C86.5499 3.20808 86.5499 3.20808 86.6404 3.1054C86.9503 2.67274 87.0118 2.23882 86.9983 1.69803C86.9408 1.20517 86.7747 0.807664 86.4492 0.470512C85.8687 -0.0150229 85.3073 -0.140467 84.6288 0.167772Z" fill="black"/>
<path d="M36.4146 15.3684C34.5331 15.244 33.079 16.0257 31.6778 17.429C31.6208 17.4848 31.5639 17.5405 31.5052 17.598C29.7101 19.481 28.7719 22.3405 28.6426 25.0525C28.5746 27.3717 29.1829 29.6221 30.5943 31.3466C30.7918 31.5728 30.9892 31.778 31.2223 31.9563C31.2824 31.9563 31.3426 31.9563 31.4045 31.9563C31.3629 31.7803 31.3211 31.6043 31.2792 31.4283C31.256 31.3303 31.2327 31.2323 31.2088 31.1313C31.1582 30.9301 31.1026 30.7304 31.0416 30.5329C30.7488 29.4946 30.7313 28.4008 30.7327 27.3199C30.7328 27.2157 30.7328 27.2157 30.7329 27.1094C30.7462 23.5953 31.8781 20.4225 33.864 17.7381C33.9654 17.6313 34.0696 17.5278 34.1771 17.429C34.3691 17.2485 34.5432 17.0717 34.718 16.8688C35.2273 16.3063 35.787 15.849 36.4146 15.4714C36.4146 15.4374 36.4146 15.4034 36.4146 15.3684Z" fill="black"/>
<path d="M39.3295 25.3599C39.2994 25.4279 39.2694 25.4959 39.2384 25.5659C39.302 25.7279 39.3658 25.8897 39.43 26.0513C39.7591 27.002 39.8304 27.9809 39.8191 28.9917C39.8182 29.1131 39.8172 29.2345 39.8163 29.3595C39.7738 32.0768 38.9801 34.7789 37.3255 36.7963C37.2543 36.885 37.1831 36.9737 37.1098 37.0651C36.6247 37.6437 36.1244 38.0748 35.5285 38.4967C35.4602 38.5476 35.3918 38.5984 35.3214 38.6508C35.3214 38.6848 35.3214 38.7188 35.3214 38.7539C36.7773 38.8727 37.9509 38.2024 39.0733 37.1955C40.3879 35.8155 41.3395 33.5783 41.4393 31.5527C41.4434 31.2163 41.446 30.88 41.4474 30.5436C41.4492 30.4281 41.4511 30.3126 41.4531 30.1937C41.4596 28.6108 40.9987 27.2578 40.0582 26.0811C39.8234 25.8286 39.5815 25.5901 39.3295 25.3599Z" fill="black"/>
<path d="M16.1009 31.8545C16.0708 31.8545 16.0407 31.8545 16.0098 31.8545C15.9003 33.347 16.3928 34.5874 17.2032 35.7306C18.4765 37.4024 20.3942 38.5981 22.3607 38.7806C24.3098 38.8706 25.8544 38.5085 27.3239 36.9927C27.542 36.7589 27.6641 36.6123 27.7606 36.2848C27.7097 36.3036 27.6587 36.3223 27.6062 36.3416C27.3551 36.4306 27.1029 36.5131 26.8497 36.5939C26.7125 36.6381 26.7125 36.6381 26.5725 36.6833C25.2482 37.0591 23.8076 37.0256 22.4773 36.6969C22.3894 36.6754 22.3894 36.6754 22.2998 36.6534C21.5673 36.4701 20.8716 36.2586 20.2 35.8727C20.0744 35.808 20.0744 35.808 19.9463 35.7419C19.2317 35.3633 18.6248 34.8899 18.0138 34.3272C17.9338 34.2539 17.8539 34.1806 17.7715 34.1051C17.0922 33.4496 16.5943 32.6917 16.1009 31.8545Z" fill="black"/>
<path d="M59.6427 35.7681C59.2552 36.0185 59.0321 36.4014 58.7749 36.8032C58.5984 37.0679 58.3976 37.2917 58.1852 37.5196C57.8539 37.8751 57.5863 38.2468 57.3174 38.6614C57.1397 38.9232 56.9393 39.1472 56.7278 39.3742C55.0918 41.1732 55.0918 41.1732 55.0312 41.9564C55.0881 42.3621 55.0881 42.3621 55.3102 42.6776C55.6208 42.9204 55.8854 42.9341 56.2513 42.8599C56.6259 42.7019 56.842 42.394 57.0921 42.053C57.1946 41.922 57.297 41.791 57.3996 41.6602C57.4519 41.5915 57.5043 41.5228 57.5583 41.4521C57.7494 41.2031 57.9443 40.9582 58.1397 40.7136C58.4373 40.3406 58.7314 39.9645 59.0229 39.5855C59.2082 39.3473 59.397 39.1129 59.5858 38.8783C59.654 38.7917 59.7222 38.7051 59.7925 38.6159C59.9404 38.4284 60.0902 38.2428 60.2416 38.0589C60.8789 37.2487 60.8789 37.2487 60.9066 36.7082C60.8722 36.3797 60.8114 36.2563 60.6447 35.9677C60.2946 35.712 60.0485 35.6697 59.6427 35.7681Z" fill="#B1D3FF"/>
<path d="M54.3655 29.5347C54.0187 29.6294 53.806 29.8373 53.5393 30.1013C53.5393 30.1693 53.5393 30.2373 53.5393 30.3074C53.4885 30.3329 53.4378 30.3584 53.3855 30.3847C53.0484 30.5908 52.7792 30.8578 52.5091 31.1638C52.2625 31.4424 52.0093 31.7098 51.7516 31.9752C51.6659 32.0638 51.5801 32.1524 51.4918 32.2436C51.2631 32.4799 51.2631 32.4799 50.9887 32.6771C50.9887 32.7451 50.9887 32.8131 50.9887 32.8832C50.938 32.9087 50.8872 32.9342 50.835 32.9604C50.5857 33.1128 50.3805 33.2885 50.1689 33.5013C50.1689 33.5693 50.1689 33.6373 50.1689 33.7074C50.12 33.7308 50.0712 33.7542 50.0208 33.7782C49.6303 34.0223 49.3229 34.3183 49.0757 34.7377C49.0225 35.1938 49.051 35.4093 49.2522 35.8131C49.5849 36.1279 49.7233 36.1348 50.1397 36.1201C50.5035 36.0461 50.7125 35.8142 50.9716 35.5298C51.0525 35.4463 51.0525 35.4463 51.135 35.3611C51.3004 35.1895 51.4633 35.0152 51.6263 34.8407C51.7258 34.7374 51.8256 34.6344 51.9256 34.5317C52.11 34.3421 52.2936 34.1516 52.4764 33.9602C52.734 33.6923 52.9963 33.4317 53.2606 33.1725C53.5795 32.8557 53.8915 32.5305 54.205 32.207C54.4793 31.9261 54.7571 31.6501 55.0369 31.3763C55.3563 31.0577 55.3563 31.0577 55.3949 30.8237C55.406 30.3858 55.3959 30.1615 55.1789 29.7858C54.8958 29.579 54.7039 29.5114 54.3655 29.5347Z" fill="#B1D3FF"/>
<path d="M57.1117 32.6008C56.8428 32.7021 56.6945 32.8631 56.4876 33.0817C56.4076 33.166 56.3276 33.2502 56.2452 33.337C55.8512 33.7645 55.462 34.1968 55.0763 34.634C54.9512 34.7754 54.9512 34.7754 54.8236 34.9196C54.6491 35.1168 54.4749 35.3141 54.3007 35.5116C54.0774 35.7647 53.8537 36.0174 53.6299 36.2699C53.4154 36.5121 53.2012 36.7547 52.9869 36.9973C52.9066 37.088 52.8262 37.1786 52.7434 37.2721C52.6698 37.3557 52.5961 37.4393 52.5202 37.5255C52.4552 37.5991 52.3902 37.6727 52.3232 37.7486C52.0665 38.0613 52.0443 38.3258 52.0518 38.7512C52.082 38.9617 52.082 38.9617 52.2585 39.2708C52.5753 39.5048 52.743 39.5658 53.1156 39.554C53.673 39.3762 54.0782 38.7931 54.4736 38.3375C54.5785 38.2195 54.6835 38.1016 54.7886 37.9838C55.0081 37.7369 55.226 37.4885 55.443 37.2388C55.7205 36.9196 56.0015 36.6048 56.2838 36.2911C56.5012 36.0485 56.7166 35.8038 56.9315 35.5583C57.0344 35.4414 57.1378 35.3251 57.2419 35.2095C58.1537 34.1931 58.1537 34.1931 58.1685 33.5964C58.1368 33.2738 58.0766 33.1617 57.9119 32.8764C57.6375 32.676 57.4423 32.5763 57.1117 32.6008Z" fill="#B1D3FF"/>
<path d="M84.784 1.14685C84.5012 1.34151 84.2862 1.60174 84.0553 1.86807C83.9546 1.97765 83.8536 2.08697 83.7525 2.19608C83.6446 2.31413 83.5367 2.43232 83.429 2.55065C83.3769 2.60732 83.3248 2.66399 83.2712 2.72238C82.9258 3.11018 82.7347 3.42708 82.6491 3.9802C82.7072 4.35584 82.897 4.50724 83.1444 4.75294C83.1744 4.78694 83.2045 4.82094 83.2355 4.85597C83.535 4.91128 83.7658 4.93023 84.0325 4.74569C84.2323 4.55188 84.4161 4.34582 84.6019 4.13475C84.7095 4.01762 84.8174 3.90065 84.9253 3.7838C85.0416 3.65624 85.1577 3.52852 85.2737 3.40065C85.3301 3.33908 85.3865 3.2775 85.4447 3.21406C85.731 2.89236 85.9559 2.63188 86.0593 2.17716C86.0522 1.78226 86.0105 1.61399 85.7804 1.31428C85.4361 1.09886 85.1623 1.03309 84.784 1.14685Z" fill="#B1D3FF"/>
</svg>
